<svg xmlns="http://www.w3.org/2000/svg" viewBox="0 0 220 220" role="img" aria-label="}DĘáéËąónčÆĂ«ü">
  <defs>
    <linearGradient id="bg" x1="0" x2="1" y1="0" y2="1">
      <stop offset="0" stop-color="#ffffff" stop-opacity="0.95"/>
      <stop offset="1" stop-color="#f6fbff" stop-opacity="0.95"/>
    </linearGradient>
    <filter id="shadow" x="-20%" y="-20%" width="140%" height="140%">
      <feDropShadow dx="0" dy="8" stdDeviation="10" flood-color="#000" flood-opacity="0.12"/>
    </filter>
  </defs>
  <g filter="url(#shadow)">
    <path d="M110 18c36 0 72 24 82 58 10 34-4 74-28 98-24 24-54 30-54 30s-30-6-54-30c-24-24-38-64-28-98C38 42 74 18 110 18Z" fill="url(#bg)" stroke="#e8eef7" stroke-width="3" />
    <path d="M60 96c-10-18-2-46 12-56 10 12 18 22 28 26-10 12-20 18-40 30Z" fill="#fff" stroke="#eef3fb" stroke-width="3" />
    <path d="M160 96c10-18 2-46-12-56-10 12-18 22-28 26 10 12 20 18 40 30Z" fill="#fff" stroke="#eef3fb" stroke-width="3" />
    <path d="M58 138c0-40 28-70 52-70s52 30 52 70c0 32-22 52-52 52s-52-20-52-52Z" fill="#fff" stroke="#eef3fb" stroke-width="3" />
    <circle cx="88" cy="130" r="8" fill="#2a2a33"/>
    <circle cx="132" cy="130" r="8" fill="#2a2a33"/>
    <circle cx="85" cy="126" r="3" fill="#fff"/>
    <circle cx="129" cy="126" r="3" fill="#fff"/>
    <path d="M110 146c8 0 14 6 14 12 0 10-10 18-14 18s-14-8-14-18c0-6 6-12 14-12Z" fill="#ff7aa8" opacity="0.9"/>
    <path d="M110 148c5 0 8 4 8 8 0 7-5 12-8 12s-8-5-8-12c0-4 3-8 8-8Z" fill="#1f1f28"/>
    <path d="M74 150c-10 0-20 10-20 20 0 14 12 26 30 26 8 0 16-2 22-6-18-4-32-18-32-40Z" fill="#fff" stroke="#eef3fb" stroke-width="3"/>
    <path d="M146 150c10 0 20 10 20 20 0 14-12 26-30 26-8 0-16-2-22-6 18-4 32-18 32-40Z" fill="#fff" stroke="#eef3fb" stroke-width="3"/>
    <path d="M66 96c6 4 14 8 24 12" stroke="#e9eff9" stroke-width="6" stroke-linecap="round"/>
    <path d="M154 96c-6 4-14 8-24 12" stroke="#e9eff9" stroke-width="6" stroke-linecap="round"/>
  </g>
</svg>
